<?xml version="1.0" encoding="utf-8"?>
<!-- Generator: Adobe Illustrator 16.0.0, SVG Export Plug-In . SVG Version: 6.00 Build 0)  -->
<!DOCTYPE svg PUBLIC "-//W3C//DTD SVG 1.1//EN" "http://www.w3.org/Graphics/SVG/1.1/DTD/svg11.dtd">
<svg version="1.1" id="Layer_1" xmlns="http://www.w3.org/2000/svg" xmlns:xlink="http://www.w3.org/1999/xlink" x="0px" y="0px"
	 width="34px" height="32px" viewBox="0 0 34 32" enable-background="new 0 0 34 32" xml:space="preserve">
<path fill-rule="evenodd" clip-rule="evenodd" fill="#33322D" d="M10.646,11.17c1.124,0.476,2.669,0.573,3.706-0.076
	c0.249-0.176,0.699-0.049,0.699-0.049c0.144-0.11,0.305-0.149,0.5-0.08c0.269,0.197,0.546,0.133,0.825,0.07
	c0.259-0.059,0.52-0.117,0.786,0.028c0.232-0.156,0.477-0.108,0.724-0.061c0.234,0.046,0.47,0.089,0.701-0.037
	c0.174-0.032,0.303,0.044,0.433,0.098c0.621-0.175,1.108,0.06,1.59,0.295c0.499,0.243,0.992,0.485,1.631,0.277
	c3.166-0.507,5.294-3.523,8.448-4.041c0.984-0.162,2.063-0.259,3.036-0.032c0.239,0.097,0.271,0.356,0.206,0.572
	c-0.283,0.405-0.689,0.392-1.183,0.377c-0.204-0.006-0.422-0.012-0.652,0.012c-1.039,0.141-1.965,0.379-2.908,0.908
	c-1.935,1.146-3.522,3.188-5.651,3.869c0.399,0.777,2.021,0.497,1.449,1.684c-0.789,0.659-2.14,0.714-3.06,0.26
	c-0.292-0.097-0.498-0.41-0.854-0.367c-0.205,0.259-0.044,0.573-0.13,0.885c-0.184,2.054-2.431,3.48-1.632,5.727
	c0.055,0.398,0.387,0.937,0.259,1.207c-0.125,0.396-0.18,0.468-0.28,0.951c-0.244,0.35-0.635,0.812-0.961,0.9
	c-0.396,0.064-0.829,0.124-1.254,0.124h-0.097c-0.378-0.003-0.745-0.051-1.069-0.18c-0.406-0.212-0.856-0.717-0.911-0.896
	c-0.126-0.99-0.361-0.793-0.354-1.094c0.065-0.809,0.605-1.446,0.444-2.311c-0.28-1.859-1.805-3.188-1.74-5.187
	c-0.075-0.098-0.238-0.151-0.334-0.054c-0.833,0.422-1.935,0.853-2.853,0.334c-0.389-0.172-0.929-0.334-1.07-0.777
	c0.053-0.712,0.829-0.603,1.351-0.89c0.234-0.127,0.45-0.307,0.443-0.354c-3.696-1.155-6.072-5.531-10.48-4.873
	C0.219,8.362,0.132,8.167,0.046,8.026C0.043,8.009,0.042,7.994,0.041,7.978V7.934c0.01-0.195,0.168-0.354,0.309-0.448
	C1.58,7.15,3.072,7.399,4.27,7.767C6.562,8.501,8.518,10.057,10.646,11.17L10.646,11.17z"/>
</svg>
